<?xml version="1.0" encoding="UTF-8" standalone="no"?>
<svg
   xmlns:dc="http://purl.org/dc/elements/1.1/"
   xmlns:cc="http://creativecommons.org/ns#"
   xmlns:rdf="http://www.w3.org/1999/02/22-rdf-syntax-ns#"
   xmlns:svg="http://www.w3.org/2000/svg"
   xmlns="http://www.w3.org/2000/svg"
   xmlns:sodipodi="http://sodipodi.sourceforge.net/DTD/sodipodi-0.dtd"
   xmlns:inkscape="http://www.inkscape.org/namespaces/inkscape"
   width="1792"
   height="1792"
   viewBox="0 0 1792 1792"
   version="1.1"
   id="svg5056"
   sodipodi:docname="font.svg"
   inkscape:version="0.92.1 r15371">
  <metadata
     id="metadata5062">
    <rdf:RDF>
      <cc:Work
         rdf:about="">
        <dc:format>image/svg+xml</dc:format>
        <dc:type
           rdf:resource="http://purl.org/dc/dcmitype/StillImage" />
      </cc:Work>
    </rdf:RDF>
  </metadata>
  <defs
     id="defs5060" />
  <sodipodi:namedview
     pagecolor="#ffffff"
     bordercolor="#666666"
     borderopacity="1"
     objecttolerance="10"
     gridtolerance="10"
     guidetolerance="10"
     inkscape:pageopacity="0"
     inkscape:pageshadow="2"
     inkscape:window-width="1920"
     inkscape:window-height="1001"
     id="namedview5058"
     showgrid="false"
     inkscape:zoom="0.13169643"
     inkscape:cx="896"
     inkscape:cy="896"
     inkscape:window-x="-9"
     inkscape:window-y="-9"
     inkscape:window-maximized="1"
     inkscape:current-layer="svg5056" />
  <path
     d="M789 559l-170 450q33 0 136.5 2t160.5 2q19 0 57-2-87-253-184-452zm-725 1105l2-79q23-7 56-12.5t57-10.5 49.5-14.5 44.5-29 31-50.5l237-616 280-724h128q8 14 11 21l205 480q33 78 106 257.5t114 274.5q15 34 58 144.5t72 168.5q20 45 35 57 19 15 88 29.5t84 20.5q6 38 6 57 0 5-.5 13.5t-.5 12.5q-63 0-190-8t-191-8q-76 0-215 7t-178 8q0-43 4-78l131-28q1 0 12.5-2.5t15.5-3.5 14.5-4.5 15-6.5 11-8 9-11 2.5-14q0-16-31-96.5t-72-177.5-42-100l-450-2q-26 58-76.5 195.5t-50.5 162.5q0 22 14 37.5t43.5 24.5 48.5 13.5 57 8.5 41 4q1 19 1 58 0 9-2 27-58 0-174.5-10t-174.5-10q-8 0-26.5 4t-21.5 4q-80 14-188 14z"
     fill="#fff"
     id="path5054"
     style="fill:#757575;fill-opacity:1" />
</svg>
