<?xml version="1.0" encoding="UTF-8" standalone="no"?>
<svg
   xmlns:dc="http://purl.org/dc/elements/1.1/"
   xmlns:cc="http://creativecommons.org/ns#"
   xmlns:rdf="http://www.w3.org/1999/02/22-rdf-syntax-ns#"
   xmlns:svg="http://www.w3.org/2000/svg"
   xmlns="http://www.w3.org/2000/svg"
   xmlns:sodipodi="http://sodipodi.sourceforge.net/DTD/sodipodi-0.dtd"
   xmlns:inkscape="http://www.inkscape.org/namespaces/inkscape"
   width="2048"
   height="1792"
   viewBox="0 0 2048 1792"
   version="1.1"
   id="svg4500"
   sodipodi:docname="id-card.svg"
   inkscape:version="0.92.1 r15371">
  <metadata
     id="metadata4506">
    <rdf:RDF>
      <cc:Work
         rdf:about="">
        <dc:format>image/svg+xml</dc:format>
        <dc:type
           rdf:resource="http://purl.org/dc/dcmitype/StillImage" />
      </cc:Work>
    </rdf:RDF>
  </metadata>
  <defs
     id="defs4504" />
  <sodipodi:namedview
     pagecolor="#ffffff"
     bordercolor="#666666"
     borderopacity="1"
     objecttolerance="10"
     gridtolerance="10"
     guidetolerance="10"
     inkscape:pageopacity="0"
     inkscape:pageshadow="2"
     inkscape:window-width="1920"
     inkscape:window-height="1001"
     id="namedview4502"
     showgrid="false"
     inkscape:zoom="0.26339286"
     inkscape:cx="1040.3961"
     inkscape:cy="84.049172"
     inkscape:window-x="-9"
     inkscape:window-y="-9"
     inkscape:window-maximized="1"
     inkscape:current-layer="svg4500" />
  <path
     d="M896 1212q0-54-7.5-100.5t-24.5-90-51-68.5-81-25q-64 64-156 64t-156-64q-47 0-81 25t-51 68.5-24.5 90-7.5 100.5q0 55 31.5 93.5t75.5 38.5h426q44 0 75.5-38.5t31.5-93.5zm-128-444q0-80-56-136t-136-56-136 56-56 136 56 136 136 56 136-56 56-136zm1024 480v-64q0-14-9-23t-23-9h-704q-14 0-23 9t-9 23v64q0 14 9 23t23 9h704q14 0 23-9t9-23zm-384-256v-64q0-14-9-23t-23-9h-320q-14 0-23 9t-9 23v64q0 14 9 23t23 9h320q14 0 23-9t9-23zm384 0v-64q0-14-9-23t-23-9h-192q-14 0-23 9t-9 23v64q0 14 9 23t23 9h192q14 0 23-9t9-23zm0-256v-64q0-14-9-23t-23-9h-704q-14 0-23 9t-9 23v64q0 14 9 23t23 9h704q14 0 23-9t9-23zm-1664-352h1792v-96q0-14-9-23t-23-9h-1728q-14 0-23 9t-9 23v96zm1920-96v1216q0 66-47 113t-113 47h-1728q-66 0-113-47t-47-113v-1216q0-66 47-113t113-47h1728q66 0 113 47t47 113z"
     fill="#fff"
     id="path4498"
     style="fill:#757575;fill-opacity:1" />
</svg>
